<svg xmlns="http://www.w3.org/2000/svg" data-name="Layer 1" viewBox="0 0 36 36"><circle cx="18" cy="18" r="16.5" fill="#f4cb5b"/><path fill="#474750" d="M18 29.03809a6.00784 6.00784 0 0 1-5.79541-4.44629.50007.50007 0 1 1 .96582-.25977 4.99989 4.99989 0 0 0 9.65918 0 .50629.50629 0 0 1 .61231-.35351.50114.50114 0 0 1 .35351.61328A6.00784 6.00784 0 0 1 18 29.03809zM12.92284 18.99707a7.3783 7.3783 0 0 1-2.75683-.52441 6.69218 6.69218 0 0 1-.92334-.459.5.5 0 0 1 .51465-.85742 5.60264 5.60264 0 0 0 .78369.38867 6.40057 6.40057 0 0 0 5.68994-.4668.50037.50037 0 0 1 .53808.84376A7.19925 7.19925 0 0 1 12.92284 18.99707zM7.77343 13.30469a.50008.50008 0 0 1-.40576-.791 6.60124 6.60124 0 0 1 .66552-.78808 7.43331 7.43331 0 0 1 6.28028-2.11231.49955.49955 0 1 1-.15918.98633 6.42793 6.42793 0 0 0-5.40918 1.8291 5.539 5.539 0 0 0-.56494.667A.49812.49812 0 0 1 7.77343 13.30469zM28.23437 13.30469a.49976.49976 0 0 1-.40674-.208 5.5896 5.5896 0 0 0-.56494-.668 6.425 6.425 0 0 0-5.40918-1.8291.49955.49955 0 1 1-.15918-.98633 7.44065 7.44065 0 0 1 6.28027 2.11231 6.65012 6.65012 0 0 1 .66553.78711.50021.50021 0 0 1-.40576.792zM22.92284 18.99707a7.3783 7.3783 0 0 1-2.75683-.52441 6.69218 6.69218 0 0 1-.92334-.459.5.5 0 0 1 .51465-.85742 5.60264 5.60264 0 0 0 .78369.38867 6.40085 6.40085 0 0 0 5.68994-.4668.50037.50037 0 0 1 .53808.84376A7.19925 7.19925 0 0 1 22.92284 18.99707z"/></svg>